<svg xmlns="http://www.w3.org/2000/svg" width="300" height="300" fill="none"><path fill="#000" fill-opacity=".2" d="m12 170.384.694-103.97c.121-18.822 13.284-34.957 31.456-38.553L144.558 7.956c24.125-4.783 46.517 14.1 46.361 39.082l-.693 103.987c-.13 18.813-13.293 34.94-31.465 38.544L58.353 209.474c-24.125 4.784-46.517-14.099-46.352-39.09z"/><path fill="#000" fill-opacity=".5" d="m61.193 211.867.694-103.987c.112-18.804 13.284-34.931 31.456-38.536L193.75 49.448c24.125-4.783 46.516 14.09 46.352 39.082l-.693 103.987c-.122 18.813-13.285 34.939-31.456 38.544l-100.409 19.905c-24.124 4.775-46.516-14.099-46.352-39.082v-.017z"/><path fill="#000" fill-opacity=".8" d="m110.386 253.349.694-103.987c.121-18.822 13.284-34.94 31.456-38.544l100.408-19.905c24.125-4.784 46.517 14.099 46.352 39.082l-.693 103.987c-.122 18.821-13.285 34.948-31.456 38.544l-100.408 19.905c-24.125 4.783-46.517-14.099-46.361-39.082h.008z"/></svg>