<svg xmlns="http://www.w3.org/2000/svg" width="300" height="300" fill="none"><path fill="#000" fill-rule="evenodd" d="M83.896 150c0-36.615 29.526-66.148 66.133-66.148 36.606 0 66.133 29.533 66.133 66.148 0 36.615-29.527 66.148-66.133 66.148-36.607 0-66.133-29.533-66.133-66.148zm23.138 0c0 23.719 19.339 43.005 42.995 43.005s42.995-19.286 42.995-43.005-19.282-43.005-42.995-43.005c-23.714 0-42.995 19.286-42.995 43.005zm111.833-53.425a15.39 15.39 0 0 0 15.425-15.429c0-8.52-6.906-15.428-15.425-15.428-8.518 0-15.425 6.908-15.425 15.428s6.849 15.429 15.425 15.429zm38.391-53.828c15.137 15.083 19.857 33.39 20.835 54.058 1.209 21.301 1.209 85.089 0 106.39-1.036 20.667-5.755 38.975-20.835 54.058-15.08 15.141-33.383 19.862-54.046 20.84-21.297 1.209-85.127 1.209-106.424 0-20.663-1.036-38.908-5.757-54.046-20.84-15.137-15.083-19.857-33.391-20.835-54.058-1.21-21.301-1.21-85.146 0-106.447 1.036-20.668 5.698-38.975 20.835-54.059 15.138-15.083 33.44-19.804 54.046-20.782 21.297-1.21 85.127-1.21 106.424 0 20.663 1.036 38.966 5.757 54.046 20.84z" clip-rule="evenodd"/></svg>