<svg xmlns="http://www.w3.org/2000/svg" width="300" height="300" fill="none"><path fill="#000" d="M150 6.002C70.597 6.002 6 70.599 6 150s64.597 143.998 144 143.998c79.402 0 144-64.597 144-143.998C294 70.6 229.402 6.002 150 6.002zm93.839 67.913c16.166 19.899 26.119 45.016 26.946 72.395-29.946-6.199-57.061-5.472-80.999-.778a563.615 563.615 0 0 0-13.35-28.92c26.069-11.23 48.765-25.574 67.403-42.697zm-16.221-16.487c-18.502 16.887-39.942 29.391-61.896 38.622-16.114-29.466-31.53-51.656-40.922-64.266a120.815 120.815 0 0 1 25.2-2.662c29.528 0 56.602 10.657 77.618 28.306zm-126.17-18.093c7.092 9.19 23.984 32.2 42.129 64.937-45.603 14.857-89.853 17.361-111.116 17.593 8.863-37.024 34.79-67.467 68.987-82.53zm-72.201 105.71.681.001c14.693 0 41.611-.988 73.302-6.767 18.08-3.297 35.225-7.734 51.312-13.234a552.756 552.756 0 0 1 12.388 26.379c-22.525 7.252-41.521 17.688-56.568 28.049-25.232 17.376-42.909 36.654-52.561 48.573-17.87-21.075-28.68-48.314-28.68-78.046 0-1.662.058-3.309.126-4.955zm45.215 99.224c8.31-10.463 25.223-29.506 49.689-46.217 16.627-11.356 33.829-19.794 51.538-25.332 10.274 26.632 19.046 56.058 24.276 87.303A120.122 120.122 0 0 1 150 270.878c-28.565 0-54.828-9.981-75.538-26.609zm146.774 3.305c-5.39-28.696-13.428-55.678-22.721-80.337 22.858-3.856 46.483-3.061 70.747 2.389-5.233 31.891-22.978 59.612-48.026 77.948z"/></svg>