<svg xmlns="http://www.w3.org/2000/svg" width="300" height="300" fill="none"><path fill="#000" d="M24 45.07c0-8.485 2.838-15.485 8.514-21 5.675-5.516 13.054-8.273 22.135-8.273 8.919 0 16.135 2.715 21.648 8.145 5.676 5.6 8.514 12.897 8.514 21.891 0 8.146-2.757 14.933-8.27 20.364-5.676 5.6-13.136 8.4-22.379 8.4h-.243c-8.92 0-16.135-2.8-21.649-8.4C26.757 60.597 24 53.554 24 45.07zm3.162 222.727V97.76h54v170.037h-54zm83.919 0h54v-94.946c0-5.939.649-10.521 1.946-13.745 2.27-5.77 5.716-10.649 10.338-14.636 4.621-3.988 10.419-5.982 17.392-5.982 18.162 0 27.243 12.812 27.243 38.436v90.873h54v-97.491c0-25.115-5.676-44.164-17.027-57.145-11.351-12.982-26.351-19.473-45-19.473-20.919 0-37.216 9.418-48.892 28.254v.509h-.243l.243-.509V97.761h-54c.324 5.43.487 22.314.487 50.654 0 28.339-.163 68.133-.487 119.382z"/></svg>